<svg xmlns="http://www.w3.org/2000/svg" viewBox="0 0 72 72" width="240" height="240">
  <g id="color">
    <path fill="#FCEA2B" d="M36 4c-0.565 0-1.137 0.286-1.446 0.809l-1.422 2.433v13.07c0 1.664-1.346 3.01-3.01 3.01s-3.01-1.346-3.01-3.01V9.44c0-1.664-1.346-3.01-3.01-3.01s-3.01 1.346-3.01 3.01v15.08c0 1.664-1.346 3.01-3.01 3.01s-3.01-1.346-3.01-3.01V24.51c0-1.664-1.346-3.01-3.01-3.01s-3.01 1.346-3.01 3.01v22.51c0 1.664 1.346 3.01 3.01 3.01H28.5v10.86c0 1.664 1.346 3.01 3.01 3.01s3.01-1.346 3.01-3.01V53.04h9.02c1.664 0 3.01-1.346 3.01-3.01V10.312l-1.47-2.473C37.026 4.312 36.566 4 36 4z"/>
  </g>
  <g id="line" stroke="#000000" stroke-width="2" stroke-linecap="round" stroke-linejoin="round">
    <path fill="none" d="M36 4c-0.565 0-1.137 0.286-1.446 0.809l-1.422 2.433v13.07c0 1.664-1.346 3.01-3.01 3.01s-3.01-1.346-3.01-3.01V9.44c0-1.664-1.346-3.01-3.01-3.01s-3.01 1.346-3.01 3.01v15.08c0 1.664-1.346 3.01-3.01 3.01s-3.01-1.346-3.01-3.01V24.51c0-1.664-1.346-3.01-3.01-3.01s-3.01 1.346-3.01 3.01v22.51c0 1.664 1.346 3.01 3.01 3.01H28.5v10.86c0 1.664 1.346 3.01 3.01 3.01s3.01-1.346 3.01-3.01V53.04h9.02c1.664 0 3.01-1.346 3.01-3.01V10.312l-1.47-2.473C37.026 4.312 36.566 4 36 4z"/>
  </g>
</svg>
